<svg xmlns="http://www.w3.org/2000/svg" height="24" width="24" fill="#000000" style=""><rect id="backgroundrect" width="100%" height="100%" x="0" y="0" fill="none" stroke="none"/><g class="currentLayer" style=""><title>Layer 1</title><path d="M0 0h24v24H0z" fill="none" id="svg_1"/><path d="M7,17.285714268684387 c-1.1,0 -1.99,0.9 -1.99,2 S5.9,21.285714268684387 7,21.285714268684387 s2,-0.9 2,-2 s-0.9,-2 -2,-2 zM1,1.2857142686843872 v2 h2 l3.6,7.59 l-1.35,2.45 c-0.16000000000000003,0.28 -0.25,0.6100000000000001 -0.25,0.9600000000000001 c0,1.1 0.9,2 2,2 h12 v-2 H7.42 c-0.14,0 -0.25,-0.11000000000000001 -0.25,-0.25 l0.030000000000000006,-0.12000000000000001 l0.9,-1.6300000000000001 h7.45 c0.7500000000000001,0 1.4100000000000001,-0.41000000000000003 1.75,-1.03 l3.58,-6.49 c0.08000000000000002,-0.14 0.12000000000000001,-0.31000000000000005 0.12000000000000001,-0.48000000000000004 c0,-0.55 -0.45,-1 -1,-1 H5.21 l-0.9400000000000001,-2 H1 zm16,16 c-1.1,0 -1.99,0.9 -1.99,2 s0.8900000000000001,2 1.99,2 s2,-0.9 2,-2 s-0.9,-2 -2,-2 z" id="svg_2" class="selected" fill-opacity="1" fill="#916019"/></g></svg>